<svg version="1.2" xmlns="http://www.w3.org/2000/svg" viewBox="0 0 47 46" width="47" height="46">
	<title>logo-svg</title>
	<style>
		.s0 { fill: #5f6fff } 
	</style>
	<path class="s0" d="m23 0c12.7 0 23 10.3 23 23v16.1c0 1.8-0.7 3.6-2 4.9-1.3 1.3-3.1 2-4.9 2h-15v-10.1c0-2.3 0.2-4.7 1.4-6.6 0.9-1.4 2-2.6 3.4-3.6 1.4-0.9 2.9-1.5 4.5-1.8h0.5q0.3-0.1 0.4-0.4 0.2-0.2 0.2-0.5 0-0.3-0.2-0.5-0.1-0.3-0.4-0.4h-0.5c-2.3-0.4-4.5-1.6-6.2-3.3-1.7-1.7-2.9-3.9-3.3-6.2v-0.5q-0.1-0.3-0.4-0.4-0.2-0.2-0.5-0.2-0.3 0-0.5 0.2-0.3 0.1-0.4 0.4v0.5c-0.3 1.6-0.9 3.1-1.8 4.5-1 1.4-2.2 2.5-3.6 3.4-1.9 1.2-4.3 1.3-6.6 1.3h-10.1c0.6-12.1 10.7-21.8 23-21.8z"/>
	<path class="s0" d="m0 24.1h10.1c2.3 0 4.7 0.2 6.6 1.4 1.6 0.9 2.9 2.2 3.8 3.8 1.2 1.9 1.4 4.3 1.4 6.6v10.1h-15c-1.8 0-3.6-0.7-4.9-2-1.3-1.3-2-3.1-2-4.9zm46-21.8c0 0.6-0.2 1.1-0.7 1.6-0.4 0.4-1 0.7-1.6 0.7-0.6 0-1.2-0.3-1.6-0.7-0.5-0.5-0.7-1-0.7-1.6 0-0.7 0.2-1.2 0.7-1.7 0.4-0.4 1-0.6 1.6-0.6 0.6 0 1.2 0.2 1.6 0.6 0.5 0.5 0.7 1 0.7 1.7z"/>
</svg>